<svg width="400" height="400" xmlns="http://www.w3.org/2000/svg" version="1.1">

 <g>
  <title>Layer 1</title>
  <rect id="svg_269" transform="rotate(35 112.7 44.14)" rx="1.89" height="10.38" width="17.82" y="38.95" x="103.79" fill="#3f9df3"/>
  <path id="svg_270" d="m243.47,46.9l-0.51,-10.01a1.37,1.37 0 0 1 2.15,-1.19l10.3,7.17a1.37,1.37 0 0 1 0.58,1.05l0.52,10.01a1.37,1.37 0 0 1 -2.15,1.19l-10.31,-7.17a1.37,1.37 0 0 1 -0.58,-1.05z" fill="#45f549"/>
  <rect id="svg_271" transform="rotate(34.7 138.3 46.23)" rx="2.62" height="10.54" width="18.1" y="40.96" x="129.25" fill="#40cef6"/>
  <path id="svg_272" d="m273.95,52.46q-0.55,-0.82 -0.81,-1.96c-1.14,-5.11 -2.71,-10.69 -2.05,-11.68a0.53,0.53 0 0 1 0.75,-0.14q4.96,3.44 9.23,6.35q0.45,0.31 1.4,1.73q0.95,1.42 1.07,1.97q1.06,5.05 2.33,10.96a0.53,0.53 0 0 1 -0.41,0.63c-1.17,0.23 -5.72,-3.35 -10,-6.36q-0.96,-0.67 -1.51,-1.5z" fill="#45f549"/>
  <rect id="svg_273" transform="rotate(34.3 163.63 48.02)" rx="2.75" height="10.68" width="18.44" y="42.68" x="154.41" fill="#44f6f4"/>
  <path id="svg_274" d="m225.71,40.02a1.54,1.53 29.6 0 1 2.28,-0.62l9.71,6.83a4.56,4.56 0 0 1 1.88,4.42l-0.89,5.81a1.55,1.54 -72 0 1 -2.23,1.14q-5.17,-2.67 -10.86,-6.97c-1.77,-1.35 -1.35,-2.82 -1.07,-4.72q0.71,-4.86 1.18,-5.89z" fill="#42f76c"/>
  <path id="svg_275" d="m215.94,58.71a0.97,0.95 46.5 0 1 -0.91,-0.03q-6.23,-3.69 -11.31,-7.69q-1.88,-1.48 -1,-3.47q1.61,-3.71 2.91,-6.58a1.08,1.08 0 0 1 1.61,-0.45l10.47,7.29a3.56,3.55 20.7 0 1 1.5,3.3c-0.18,1.65 -1.22,6.63 -3.27,7.63z" fill="#44f890"/>
  <rect id="svg_276" transform="rotate(34.3 80.24 52.65)" rx="1.84" height="10.28" width="17.16" y="47.51" x="71.66" fill="#3d55eb"/>
  <rect id="svg_277" transform="rotate(34.9 105.28 54.36)" rx="1.85" height="10.3" width="17.62" y="49.21" x="96.47" fill="#3d78ef"/>
  <path id="svg_278" d="m268.66,51.77q1.79,1.37 2.36,2.03a4.1,4.09 -66.8 0 1 0.98,2.45l0.49,9.31a0.97,0.96 2.7 0 1 -1.11,1.01q-0.08,-0.02 -0.4,-0.21q-4.42,-2.76 -8.37,-5.78q-1.88,-1.24 -2.45,-1.9a4.1,4.09 -66.8 0 1 -0.98,-2.45l-0.48,-9.31a0.97,0.96 2.7 0 1 1.1,-1.01q0.08,0.02 0.4,0.21q4.42,2.76 8.46,5.65z" fill="#45f549"/>
  <rect id="svg_279" transform="rotate(35 130.79 56.42)" rx="2.18" height="10.34" width="17.82" y="51.25" x="121.87999" fill="#3cacf4"/>
  <rect id="svg_280" transform="rotate(34.6 156.42 58.6)" rx="2.25" height="10.62" width="18.14" y="53.29" x="147.35" fill="#41e0f6"/>
  <path id="svg_281" d="m254.7,69.77q-0.54,0.18 -1.03,-0.1q-5.52,-3.08 -11.41,-8.04a3.11,3.11 0 0 1 -1.06,-2.9l1.35,-7.9a0.95,0.95 0 0 1 1.47,-0.62l10.94,7.61a3.31,3.31 0 0 1 1.33,3.5q-0.9,3.73 -1.13,7.88q-0.03,0.44 -0.46,0.57z" fill="#42f76c"/>
  <rect id="svg_282" transform="rotate(34.7 181.79 60.37)" rx="2.46" height="10.76" width="18.32" y="54.99" x="172.62999" fill="#44f6f4"/>
  <path id="svg_283" d="m222.88,52.65a0.72,0.72 0 0 1 1.03,-0.36q2.88,1.66 10.56,6.89q2.94,2 2.49,4.59q-0.6,3.41 -2.47,6.28a1.84,1.84 0 0 1 -2.61,0.49l-10.92,-7.79a2.45,2.45 0 0 1 -0.85,-2.87l2.77,-7.23z" fill="#44f890"/>
  <path id="svg_284" d="m197.44,59.97l2.09,-5.65a2.4,2.4 0 0 1 3.63,-1.14l10.64,7.41a2.4,2.4 0 0 1 0.88,2.8l-2.09,5.65a2.4,2.4 0 0 1 -3.63,1.14l-10.64,-7.41a2.4,2.4 0 0 1 -0.88,-2.8z" fill="#42f7bb"/>
  <rect id="svg_285" transform="rotate(34.4 73.1 63.12)" rx="2.04" height="10.46" width="16.8" y="57.89" x="64.7" fill="#3e3ce6"/>
  <path id="svg_286" d="m286.94,64.72l2.02,11.81a1.01,1.01 0 0 1 -1.57,1l-11.11,-7.74a1.01,1.01 0 0 1 -0.42,-0.66l-2.02,-11.81a1.01,1.01 0 0 1 1.57,-1l11.11,7.74a1.01,1.01 0 0 1 0.42,0.66z" fill="#45f549"/>
  <path id="svg_287" d="m132.04,68.97l-3.61,5.18a2.09,2.09 0 0 1 -2.91,0.53l-10.97,-7.65a2.09,2.09 0 0 1 -0.52,-2.91l3.61,-5.18a2.09,2.09 0 0 1 2.9,-0.52l10.98,7.65a2.09,2.09 0 0 1 0.52,2.9z" fill="#3e86f0"/>
  <path id="svg_288" d="m300.8,58.27l10.26,7.14a0.86,0.86 0 0 1 0.32,0.43l4.84,14.23a0.86,0.86 0 0 1 -1.31,0.98l-10.26,-7.14a0.86,0.86 0 0 1 -0.32,-0.43l-4.84,-14.23a0.86,0.86 0 0 1 1.31,-0.98z" fill="#45f549"/>
  <path id="svg_289" d="m158.09,71.96l-4.36,4.36a2.21,2.21 0 0 1 -2.83,0.25l-11.02,-7.67a2.21,2.21 0 0 1 -0.3,-3.38l4.36,-4.36a2.21,2.21 0 0 1 2.83,-0.25l11.02,7.67a2.21,2.21 0 0 1 0.3,3.38z" fill="#40b8f2"/>
  <path id="svg_290" d="m262.63,75.97c-2.35,-1.48 -4.48,-3.08 -4.28,-5.9q0.24,-3.4 0.74,-7.63a0.98,0.97 19 0 1 1.47,-0.72c2.67,1.62 5.21,3.72 8.13,5.55c2.34,1.5 4.47,3.1 4.27,5.92q-0.24,3.39 -0.74,7.63a0.98,0.97 19 0 1 -1.47,0.72c-2.67,-1.62 -5.22,-3.72 -8.12,-5.57z" fill="#42f76c"/>
  <rect id="svg_291" transform="rotate(34.7 174.74 71.04)" rx="2.34" height="10.62" width="18.3" y="65.73" x="165.59001" fill="#41e0f6"/>
  <path id="svg_292" d="m209.05,75.15l-3.12,5.42a2.24,2.24 0 0 1 -3.22,0.72l-11.2,-7.79a2.24,2.24 0 0 1 -0.66,-2.96l3.13,-5.42a2.24,2.24 0 0 1 3.22,-0.72l11.19,7.79a2.24,2.24 0 0 1 0.66,2.96z" fill="#43f7d3"/>
  <path id="svg_293" d="m249.21,69.32c2.79,1.79 5.9,3.08 4.99,6.17c-0.79,2.68 -1.32,5.21 -1.81,6.89a1.34,1.33 -63.1 0 1 -2.09,0.69q-4.19,-3.21 -7.18,-5.12c-2.79,-1.8 -5.9,-3.08 -4.99,-6.18c0.8,-2.68 1.33,-5.21 1.82,-6.89a1.34,1.33 -63.1 0 1 2.09,-0.69q4.19,3.21 7.17,5.13z" fill="#44f890"/>
  <path id="svg_294" d="m217.85,65.35a1.49,1.48 28.6 0 1 2.29,-0.67q5.43,4.15 10.94,7.38q1.13,0.66 1.56,3.51a1.88,1.86 -36.6 0 1 -0.17,1.11l-2.86,5.86a1.2,1.19 -59.4 0 1 -1.76,0.46l-12.05,-8.38a1.75,1.75 0 0 1 -0.64,-2.03l2.69,-7.24z" fill="#42f7bb"/>
  <rect id="svg_295" transform="rotate(34.4 65.9 73.6)" rx="1.68" height="10.36" width="16.22" y="68.42" x="57.79" fill="#3e3ce6"/>
  <path id="svg_296" d="m81.57,72.16l3.09,-4.43a2.51,2.51 0 0 1 3.49,-0.63l9.61,6.7a2.51,2.51 0 0 1 0.62,3.49l-3.08,4.42a2.51,2.51 0 0 1 -3.49,0.63l-9.61,-6.69a2.51,2.51 0 0 1 -0.63,-3.49z" fill="#3d55eb"/>
  <path id="svg_297" d="m304.13,88.67l-0.67,-0.1a1.22,1.2 -20.7 0 1 -0.57,-0.25l-4.56,-3.57a2.89,2.87 -11.5 0 0 -0.38,-0.25q-3.15,-1.52 -5.65,-3.99a0.7,0.7 0 0 1 -0.21,-0.39l-2.01,-11.75a0.99,0.99 0 0 1 1.52,-0.99q6.49,4.29 7.03,4.72c3.35,2.65 4.45,4.15 5.28,8.25q1.22,6.01 1.38,7.18a1.02,1.01 -89.4 0 1 -1.16,1.14z" fill="#45f549"/>
  <path id="svg_298" d="m106.17,74.07l3.57,-5.13a2.08,2.08 0 0 1 2.9,-0.52l10.82,7.53a2.08,2.08 0 0 1 0.52,2.9l-3.57,5.13a2.08,2.08 0 0 1 -2.9,0.52l-10.82,-7.53a2.08,2.08 0 0 1 -0.52,-2.9z" fill="#3d78ef"/>
  <path id="svg_299" d="m330.29,91.61q-0.33,-0.09 -7.84,-5.57c-2.36,-1.72 -3.82,-3.25 -4.58,-6.03q-1.08,-3.91 -3.91,-10.33a1.04,1.04 0 0 1 1.55,-1.28l8.48,5.91a3.07,3 4.1 0 1 0.94,1.06c3.53,6.8 5.54,9.76 6.02,15.69a0.52,0.52 0 0 1 -0.66,0.55z" fill="#45f549"/>
  <path id="svg_300" d="m131.8,75.4l4.22,-4.21a2.33,2.33 0 0 1 2.98,-0.27l10.58,7.37a2.33,2.33 0 0 1 0.31,3.56l-4.21,4.21a2.33,2.33 0 0 1 -2.98,0.27l-10.58,-7.37a2.33,2.33 0 0 1 -0.32,-3.56z" fill="#3f9df3"/>
  <path id="svg_301" d="m157.73,78.83l3.93,-5.63a1.81,1.81 0 0 1 2.52,-0.46l11.64,8.12a1.81,1.81 0 0 1 0.46,2.52l-3.93,5.63a1.81,1.81 0 0 1 -2.51,0.45l-11.65,-8.11a1.81,1.81 0 0 1 -0.46,-2.52z" fill="#40cef6"/>
  <path id="svg_302" d="m183.63,80.89l3.68,-5.28a2.13,2.13 0 0 1 2.97,-0.53l11.91,8.29a2.13,2.13 0 0 1 0.29,3.25l-4.63,4.63a2.13,2.13 0 0 1 -2.72,0.24l-10.97,-7.63a2.13,2.13 0 0 1 -0.53,-2.97z" fill="#44f6f4"/>
  <path id="svg_303" d="m255.47,84.98l1.13,-7.36a2,2 0 0 1 3.12,-1.34l11.04,7.68a2,2 0 0 1 0.83,1.94l-1.13,7.37a2,2 0 0 1 -3.12,1.34l-11.04,-7.69a2,2 0 0 1 -0.83,-1.94z" fill="#42f76c"/>
  <path id="svg_304" d="m209.01,82.36l3.37,-4.84a2.36,2.36 0 0 1 3.29,-0.59l10.79,7.51a2.36,2.36 0 0 1 0.7,3.12l-2.97,5.13a2.36,2.36 0 0 1 -3.39,0.76l-11.2,-7.8a2.36,2.36 0 0 1 -0.59,-3.29z" fill="#43f7d3"/>
  <rect id="svg_305" transform="rotate(35.2 82.29 84.72)" rx="1.58" height="10.26" width="16.08" y="79.59" x="74.25" fill="#3e3ce6"/>
  <path id="svg_306" d="m233.16,84.29l2.18,-5.89a2.23,2.23 0 0 1 3.36,-1.05l11.09,7.71a2.23,2.23 0 0 1 0.82,2.61l-2.18,5.89a2.23,2.23 0 0 1 -3.36,1.05l-11.09,-7.71a2.23,2.23 0 0 1 -0.82,-2.61z" fill="#44f890"/>
  <path id="svg_307" d="m317.76,85.89q1,1.44 1.12,2q1.19,5.2 2.61,11.27a0.55,0.54 -12.9 0 1 -0.42,0.66c-1.2,0.26 -5.96,-3.36 -10.43,-6.39q-1,-0.68 -1.59,-1.52q-0.58,-0.84 -0.86,-2.01c-1.27,-5.25 -2.99,-10.98 -2.33,-12.01a0.55,0.54 -56.6 0 1 0.77,-0.16q5.19,3.45 9.64,6.39q0.48,0.31 1.49,1.77z" fill="#45f549"/>
  <rect id="svg_308" transform="rotate(34.8 106.93 86.19)" rx="2.01" height="10.44" width="16.78" y="80.97" x="98.54" fill="#3d55eb"/>
  <path id="svg_309" d="m142.82,89.66l-5.96,6.26a1.27,1.26 -52.8 0 1 -1.56,0.22q-5.5,-3.27 -9.84,-6.1q-1.18,-0.77 -2.47,-2.29a1.52,1.51 46.8 0 1 0.06,-2.01l4.54,-4.78a2.05,2.05 0 0 1 2.61,-0.3l12.53,8.27a0.48,0.48 0 0 1 0.09,0.73z" fill="#3d78ef"/>
  <path id="svg_310" d="m149.62,87.38l4,-4a2.41,2.41 0 0 1 3.08,-0.28l10.58,7.36a2.41,2.41 0 0 1 0.33,3.68l-4.01,4.01a2.41,2.41 0 0 1 -3.09,0.28l-10.57,-7.36a2.41,2.41 0 0 1 -0.32,-3.69z" fill="#3cacf4"/>
  <path id="svg_311" d="m306.12,93.39l0.53,10.52a1.15,1.15 0 0 1 -1.8,1l-11.88,-8.26a1.15,1.15 0 0 1 -0.49,-0.88l-0.53,-10.52a1.15,1.15 0 0 1 1.8,-1l11.88,8.26a1.15,1.15 0 0 1 0.49,0.88z" fill="#45f549"/>
  <path id="svg_312" d="m175.86,90.86l3.66,-5.26a2.13,2.13 0 0 1 2.97,-0.53l11.3,7.86a2.13,2.13 0 0 1 0.53,2.97l-3.67,5.26a2.13,2.13 0 0 1 -2.97,0.53l-11.29,-7.86a2.13,2.13 0 0 1 -0.53,-2.97z" fill="#41e0f6"/>
  <path id="svg_313" d="m69.75,87.77a2.35,2.35 0 0 1 3.27,-0.58l8.33,5.83a3.28,3.04 35 0 1 0.95,4.38l-2.57,3.67a3.28,3.04 35 0 1 -4.43,0.61l-8.33,-5.84a2.35,2.35 0 0 1 -0.58,-3.27l3.36,-4.8z" fill="#3e3ce6"/>
  <rect id="svg_314" transform="rotate(35 211.19 95.81)" rx="2.36" height="11.12" width="18.04" y="90.25" x="202.17" fill="#44f6f4"/>
  <path id="svg_315" d="m90.04,93.82l3.74,-5.36a1.98,1.98 0 0 1 2.75,-0.49l10.54,7.34a1.98,1.98 0 0 1 0.27,3.02l-4.69,4.69a1.98,1.98 0 0 1 -2.53,0.22l-9.58,-6.66a1.98,1.98 0 0 1 -0.5,-2.76z" fill="#3e3ce6"/>
  <path id="svg_316" d="m274.85,87.67q0.54,-0.19 1.05,0.08q5.68,2.96 11.79,7.83a3.16,3.16 0 0 1 1.15,2.91l-1.13,8.04a0.96,0.96 0 0 1 -1.48,0.68l-11.31,-7.41a3.36,3.36 0 0 1 -1.45,-3.51q0.81,-3.81 0.92,-8.02q0.02,-0.45 0.46,-0.6z" fill="#42f76c"/>
  <path id="svg_317" d="m231.17,88.94a1.06,1.06 0 0 1 1.47,-0.28l11.42,7.7a3.57,2.58 34 0 1 1.52,4.13l-3.12,4.63a3.57,2.58 34 0 1 -4.41,0.14l-11.41,-7.7a1.06,1.06 0 0 1 -0.29,-1.47l4.82,-7.15z" fill="#42f7bb"/>
  <path id="svg_318" d="m337.42,110.26a0.69,0.69 0 0 1 -1.09,0.68q-5.81,-4.25 -9.57,-6.21q-0.95,-0.49 -2.75,-3.86a2.68,2.68 0 0 1 -0.27,-0.74l-2.24,-10.86a0.81,0.81 0 0 1 1.37,-0.73q2.85,2.85 7.64,5.12a3.95,3.85 -3.5 0 1 1.6,1.38l3.48,5.24a1.49,1.45 -66.9 0 1 0.22,0.57l1.61,9.41z" fill="#45f549"/>
  <path id="svg_319" d="m254.02,89.25a0.73,0.73 0 0 1 1.04,-0.38q2.94,1.65 10.79,6.86q3.01,1.99 2.58,4.62q-0.56,3.46 -2.42,6.4a1.87,1.86 33.6 0 1 -2.64,0.53l-11.17,-7.77a2.49,2.48 -62.3 0 1 -0.9,-2.9l2.72,-7.36z" fill="#44f890"/>
  <path id="svg_320" d="m114.89,94.81l4.4,-4.41a2.19,2.19 0 0 1 2.8,-0.25l10.2,7.09a2.19,2.19 0 0 1 0.3,3.34l-4.41,4.41a2.19,2.19 0 0 1 -2.8,0.25l-10.19,-7.09a2.19,2.19 0 0 1 -0.3,-3.34z" fill="#3d55eb"/>
  <path id="svg_321" d="m159.58,102.35l-5.68,5.67a1.27,1.27 0 0 1 -1.62,0.14l-11.94,-8.31a1.27,1.27 0 0 1 -0.18,-1.94l5.67,-5.67a1.27,1.27 0 0 1 1.62,-0.14l11.95,8.31a1.27,1.27 0 0 1 0.18,1.94z" fill="#3e86f0"/>
  <path id="svg_322" d="m187.05,104.54l-6.22,6.22a1.29,1.29 0 0 1 -1.6,0.18q-5.51,-3.47 -9.86,-6.46q-1.18,-0.81 -2.46,-2.39a1.55,1.54 48.3 0 1 0.11,-2.05l4.75,-4.75a2.08,2.08 0 0 1 2.66,-0.24l12.55,8.74a0.49,0.49 0 0 1 0.07,0.75z" fill="#40b8f2"/>
  <path id="svg_323" d="m309.28,107.15l-0.53,-10.51a1.16,1.16 0 0 1 1.82,-1.01l11.88,8.27a1.16,1.16 0 0 1 0.5,0.9l0.53,10.51a1.16,1.16 0 0 1 -1.82,1.01l-11.88,-8.27a1.16,1.16 0 0 1 -0.5,-0.9z" fill="#45f549"/>
  <path id="svg_324" d="m74.58,106.22l-3.81,5.48a1.92,1.92 0 0 1 -2.68,0.48l-9.08,-6.32a1.92,1.92 0 0 1 -0.47,-2.68l3.81,-5.48a1.92,1.92 0 0 1 2.68,-0.48l9.08,6.32a1.92,1.92 0 0 1 0.47,2.68z" fill="#3e3ce6"/>
  <path id="svg_325" d="m193.83,102.49l4.32,-4.32a2.36,2.36 0 0 1 3.02,-0.27l10.98,7.64a2.36,2.36 0 0 1 0.32,3.6l-4.31,4.32a2.36,2.36 0 0 1 -3.02,0.27l-10.98,-7.64a2.36,2.36 0 0 1 -0.33,-3.6z" fill="#41e0f6"/>
  <path id="svg_326" d="m98.4,107.94l-4.4,4.4a2.22,2.22 0 0 1 -2.83,0.25l-9.07,-6.31a2.22,2.22 0 0 1 -0.3,-3.4l4.4,-4.4a2.22,2.22 0 0 1 2.83,-0.25l9.07,6.31a2.22,2.22 0 0 1 0.3,3.4z" fill="#3e3ce6"/>
  <path id="svg_327" d="m105.96,104.56l4.92,-4.92a1.8,1.8 0 0 1 2.31,-0.2l10.22,7.12a1.8,1.8 0 0 1 0.25,2.75l-4.92,4.92a1.8,1.8 0 0 1 -2.3,0.2l-10.23,-7.12a1.8,1.8 0 0 1 -0.25,-2.75z" fill="#3d55eb"/>
  <path id="svg_328" d="m292.37,99.74q0.54,-0.2 1.05,0.07q5.71,2.93 11.86,7.76a3.16,3.16 0 0 1 1.18,2.9l-1.08,8.06a0.96,0.96 0 0 1 -1.47,0.69l-11.39,-7.33a3.37,3.37 0 0 1 -1.47,-3.51q0.78,-3.82 0.86,-8.04q0.02,-0.45 0.46,-0.6z" fill="#42f76c"/>
  <rect id="svg_329" transform="rotate(34.4 229.44 108.3)" rx="2.22" height="10.6" width="18.7" y="103" x="220.09" fill="#44f6f4"/>
  <path id="svg_330" d="m245.29,107.34l2.91,-5.04a2.4,2.4 0 0 1 3.44,-0.77l11.02,7.66a2.4,2.4 0 0 1 0.71,3.17l-2.91,5.04a2.4,2.4 0 0 1 -3.45,0.77l-11.01,-7.66a2.4,2.4 0 0 1 -0.71,-3.17z" fill="#42f7bb"/>
  <path id="svg_331" d="m271.5,102.06a1.35,1.34 -64 0 1 1.97,-0.68c6.16,3.82 9.66,5.66 13.11,9.19a1,1 0 0 1 0.23,1.05l-2.6,7.02a1.76,1.76 0 0 1 -2.66,0.83l-11.22,-7.81a2.98,2.98 0 0 1 -1.09,-3.49l2.26,-6.11z" fill="#44f890"/>
  <path id="svg_332" d="m157.91,109.39l5.04,-5.05a1.73,1.73 0 0 1 2.21,-0.19l11.19,7.79a1.73,1.73 0 0 1 0.24,2.64l-5.05,5.05a1.73,1.73 0 0 1 -2.21,0.19l-11.19,-7.79a1.73,1.73 0 0 1 -0.23,-2.64z" fill="#3f9df3"/>
  <path id="svg_333" d="m204.66,117.07l-5.72,5.14a2.44,2.43 -49.4 0 1 -2.97,0.23l-11.13,-7.36a1.83,1.83 0 0 1 -0.47,-2.6q2.01,-2.76 4.96,-4.53q2.24,-1.34 5.14,0.68q7.6,5.27 10.16,7.35a0.72,0.71 -46.7 0 1 0.03,1.09z" fill="#40b8f2"/>
  <path id="svg_334" d="m339.5,128.32q-7.82,-4.96 -10.59,-7.17c-1.75,-1.39 -2.86,-2.64 -2.84,-5.41q0.02,-3.48 -0.7,-7.68a0.8,0.8 0 0 1 1.01,-0.9c4,1.14 5.93,4.07 9.75,5.73a4.41,4.25 75.8 0 1 1,0.62c3.01,2.44 3.78,10.59 3.29,14.38a0.61,0.6 19.8 0 1 -0.92,0.43z" fill="#45f549"/>
  <path id="svg_335" d="m90.53,116.11l-5.73,5.73a1.58,1.57 40 0 1 -2.01,0.17l-9.46,-6.58a1.17,1.17 0 0 1 -0.27,-1.66c2.34,-3.11 4.55,-8.42 9.14,-4.93q3.94,3 8.23,6.06a0.8,0.79 -50 0 1 0.1,1.21z" fill="#3e3ce6"/>
  <path id="svg_336" d="m96.69,114.25l5.08,-5.07a2.23,2.23 0 0 1 2.86,-0.26l10.32,7.18a0.96,0.96 0 0 1 0.07,1.52q-1.06,0.91 -3.97,4.05c-1.9,2.06 -3.69,1.74 -5.96,0.27q-4.67,-3.02 -8.33,-6.14a1.06,1.06 0 0 1 -0.07,-1.55z" fill="#3e3ce6"/>
  <path id="svg_337" d="m211.73,115.14l4.86,-4.86a1.98,1.98 0 0 1 2.53,-0.22l11.31,7.88a1.98,1.98 0 0 1 0.27,3.02l-4.86,4.86a1.98,1.98 0 0 1 -2.53,0.22l-11.31,-7.88a1.98,1.98 0 0 1 -0.27,-3.02z" fill="#44f6f4"/>
  <path id="svg_338" d="m139.74,120.77l-4.39,4.39a2.18,2.18 0 0 1 -2.79,0.25l-9.67,-6.73a2.18,2.18 0 0 1 -0.3,-3.33l4.39,-4.39a2.18,2.18 0 0 1 2.79,-0.25l9.67,6.73a2.18,2.18 0 0 1 0.3,3.33z" fill="#3d55eb"/>
  <path id="svg_339" d="m313.22,125.9c-2.44,-1.43 -4.65,-2.98 -4.54,-5.85q0.14,-3.46 0.5,-7.78a0.99,0.99 0 0 1 1.47,-0.78c2.77,1.56 5.42,3.6 8.44,5.37c2.43,1.44 4.65,3 4.54,5.87q-0.14,3.46 -0.5,7.78a0.99,0.99 0 0 1 -1.47,0.78c-2.77,-1.56 -5.42,-3.61 -8.44,-5.39z" fill="#45f549"/>
  <rect id="svg_340" transform="rotate(34.3 247.54 120.5)" rx="2.53" height="10.78" width="18.5" y="115.11" x="238.28999" fill="#43f7d3"/>
  <path id="svg_341" d="m148.14,117.62l5.93,-4.26a1.85,1.85 0 0 1 2.14,-0.02l10.63,7.4a1.85,1.85 0 0 1 0.02,3.02l-5.93,4.26a1.85,1.85 0 0 1 -2.14,0.02l-10.63,-7.4a1.85,1.85 0 0 1 -0.02,-3.02z" fill="#3d78ef"/>
  <path id="svg_342" d="m289.75,114.13a1.34,1.34 0 0 1 1.99,-0.61c6.03,4.01 9.46,5.96 12.79,9.6a1,1 0 0 1 0.2,1.06l-2.83,6.92a1.76,1.76 0 0 1 -2.68,0.74l-10.95,-8.16a2.98,2.98 0 0 1 -0.97,-3.52l2.45,-6.03z" fill="#42f76c"/>
  <path id="svg_343" d="m263.51,119.89l3.08,-5.35a2.2,2.2 0 0 1 3.17,-0.7l11.34,7.9a2.2,2.2 0 0 1 0.65,2.9l-3.08,5.35a2.2,2.2 0 0 1 -3.17,0.7l-11.34,-7.9a2.2,2.2 0 0 1 -0.65,-2.9z" fill="#42f7bb"/>
  <path id="svg_344" d="m175.17,120.43l5.72,-4.11a1.91,1.91 0 0 1 2.21,-0.02l10.98,7.65a1.91,1.91 0 0 1 0.03,3.12l-5.72,4.11a1.91,1.91 0 0 1 -2.21,0.02l-10.98,-7.65a1.91,1.91 0 0 1 -0.03,-3.12z" fill="#3f9df3"/>
  <path id="svg_345" d="m76.17,120.07q2.34,1.82 5.44,3.99a0.89,0.88 -49.9 0 1 0.12,1.36l-5.33,5.33a2.09,2.08 34.5 0 1 -2.34,0.43q-2.29,-1.05 -4.28,-2.6q-2.33,-1.82 -5.44,-3.99a0.89,0.88 -49.9 0 1 -0.11,-1.36l5.33,-5.33a2.09,2.08 34.5 0 1 2.34,-0.43q2.29,1.05 4.27,2.6z" fill="#3e3ce6"/>
  <path id="svg_346" d="m87.52,123.71q3.36,-3.19 4.3,-4.64c1.1,-1.67 3.4,-1.38 4.62,-0.5q5.32,3.83 7.77,5.36c1.72,1.07 1.99,2.42 0.45,3.75q-3.09,2.68 -4.56,3.9a2.73,2.72 -47.2 0 1 -3.29,0.13l-9.17,-6.38a1.05,1.05 0 0 1 -0.12,-1.62z" fill="#3e3ce6"/>
  <path id="svg_347" d="m221.52,129.79l-5.03,5.03a1.8,1.8 0 0 1 -2.31,0.21l-11.41,-7.95a1.8,1.8 0 0 1 -0.25,-2.75l5.03,-5.03a1.8,1.8 0 0 1 2.31,-0.21l11.41,7.95a1.8,1.8 0 0 1 0.25,2.75z" fill="#40cef6"/>
  <path id="svg_348" d="m112.92,124.34l4.67,-4.67a1.97,1.97 0 0 1 2.51,-0.22l9.88,6.87a1.97,1.97 0 0 1 0.03,3.22l-5.6,4.03a1.97,1.97 0 0 1 -2.27,0.01l-8.96,-6.23a1.97,1.97 0 0 1 -0.26,-3.01z" fill="#3e3ce6"/>
  <path id="svg_349" d="m144.52,133.48c-2.26,-1.56 -4.45,-2.89 -6.62,-4.77a1.24,1.24 0 0 1 0.03,-1.89c2.64,-2.14 5.49,-5.6 8.34,-4.65a2.11,2.07 70.6 0 1 0.5,0.25q0.02,0.01 3.48,2.4c2.26,1.56 4.45,2.9 6.62,4.78a1.24,1.24 0 0 1 -0.03,1.89c-2.64,2.14 -5.49,5.6 -8.34,4.65a2.11,2.07 70.6 0 1 -0.51,-0.25q-0.01,-0.01 -3.47,-2.41z" fill="#3d55eb"/>
  <path id="svg_350" d="m248.64,133.46l-4.56,4.56a2.37,2.37 0 0 1 -3.03,0.27l-10.93,-7.61a2.37,2.37 0 0 1 -0.32,-3.62l4.55,-4.56a2.37,2.37 0 0 1 3.03,-0.27l10.93,7.61a2.37,2.37 0 0 1 0.33,3.62z" fill="#44f6f4"/>
  <path id="svg_351" d="m336.49,128.62c2.49,1.44 4.75,3.01 4.65,5.93q-0.11,3.52 -0.45,7.92a1.01,1.01 0 0 1 -1.5,0.8c-2.83,-1.57 -5.53,-3.63 -8.62,-5.42c-2.48,-1.44 -4.75,-3.01 -4.65,-5.93q0.12,-3.52 0.46,-7.92a1.01,1.01 0 0 1 1.49,-0.8c2.83,1.57 5.54,3.63 8.62,5.42z" fill="#45f549"/>
  <rect id="svg_352" transform="rotate(34.4 265.66 132.94)" rx="2.41" height="10.48" width="18.38" y="127.7" x="256.47" fill="#43f7d3"/>
  <path id="svg_353" d="m164.23,131.54a0.74,0.73 43.3 0 1 -0.04,-1.18q2.16,-1.74 4.9,-4.38c2.05,-1.97 4.28,-1.15 6.62,0.63q3.35,2.55 8.39,5.85a1.56,1.55 43.7 0 1 0.06,2.56l-5.44,3.92a3.32,3.32 0 0 1 -3.82,0.03l-10.67,-7.43z" fill="#3d78ef"/>
  <path id="svg_354" d="m308.34,125.51c2.84,0.77 6.86,4.05 12.79,8.13a3.19,3.18 27.5 0 1 1.18,3.73l-2.17,5.86a1.89,1.88 -62.4 0 1 -2.84,0.9l-10.74,-7.48a2.91,2.9 -65.2 0 1 -1.15,-3.13l1.93,-7.44a0.81,0.81 0 0 1 1,-0.57z" fill="#42f76c"/>
  <path id="svg_355" d="m61.78,126.47a0.62,0.61 -54 0 1 0.84,-0.14l9.92,6.91a1.05,1.05 0 0 1 0.14,1.61q-1.31,1.29 -4.24,4.38q-2.14,2.26 -4.56,0.61q-2.79,-1.9 -5.66,-3.66c-1.86,-1.15 -2.88,-2.61 -1.13,-4.39q2.96,-3.02 4.69,-5.32z" fill="#3e3ce6"/>
  <path id="svg_356" d="m78.96,132.52l5.27,-5.28a1.54,1.54 0 0 1 1.97,-0.17l8.94,6.22a1.54,1.54 0 0 1 0.21,2.35l-5.28,5.28a1.54,1.54 0 0 1 -1.97,0.17l-8.93,-6.22a1.54,1.54 0 0 1 -0.21,-2.35z" fill="#3e3ce6"/>
  <path id="svg_357" d="m192.08,132.93l6.65,-4.78a1.39,1.39 0 0 1 1.61,-0.02l11.7,8.15a1.39,1.39 0 0 1 0.02,2.27l-6.65,4.78a1.39,1.39 0 0 1 -1.61,0.02l-11.7,-8.15a1.39,1.39 0 0 1 -0.02,-2.27z" fill="#3cacf4"/>
  <path id="svg_358" d="m128.22,137.66a1.41,1.41 0 0 1 -0.18,-2.14l4.84,-4.85a2.58,2.57 -50 0 1 3.3,-0.29l10.21,7.1a1.1,1.1 0 0 1 0.16,1.66c-2.58,2.66 -6.5,6.85 -10.32,4.18q-4.7,-3.3 -8.01,-5.66z" fill="#3e3ce6"/>
  <path id="svg_359" d="m219.38,137.23l5.74,-5.21a2.45,2.45 0 0 1 2.99,-0.24l11.24,7.36a1.85,1.84 34.5 0 1 0.49,2.61q-2.01,2.79 -4.97,4.58q-2.25,1.37 -5.18,-0.66q-7.67,-5.26 -10.27,-7.35a0.72,0.72 0 0 1 -0.04,-1.09z" fill="#41e0f6"/>
  <path id="svg_360" d="m173.5,143.07l-6.5,3.75a3.21,3.21 0 0 1 -3.43,-0.15l-9.36,-6.51a1.49,1.48 44.6 0 1 -0.02,-2.42l6.35,-4.56a1.91,1.9 44.4 0 1 2.2,-0.02l10.86,7.56a1.39,1.39 0 0 1 -0.1,2.35z" fill="#3d55eb"/>
  <path id="svg_361" d="m247.77,139.6l4.79,-4.79a2.03,2.03 0 0 1 2.6,-0.23l11.56,8.05a2.03,2.03 0 0 1 0.27,3.11l-4.78,4.78a2.03,2.03 0 0 1 -2.59,0.23l-11.57,-8.05a2.03,2.03 0 0 1 -0.28,-3.1z" fill="#44f6f4"/>
  <path id="svg_362" d="m70.47,141.1l4.39,-4.39a2.23,2.23 0 0 1 2.85,-0.26l7.38,5.14a2.23,2.23 0 0 1 0.3,3.41l-4.39,4.38a2.23,2.23 0 0 1 -2.85,0.25l-7.37,-5.13a2.23,2.23 0 0 1 -0.31,-3.4z" fill="#3e3ce6"/>
  <path id="svg_363" d="m200.6,146.67l-5.93,4.26a1.79,1.79 0 0 1 -2.07,0.02l-10.6,-7.39a1.79,1.79 0 0 1 -0.02,-2.92l5.92,-4.26a1.79,1.79 0 0 1 2.07,-0.02l10.6,7.38a1.79,1.79 0 0 1 0.03,2.93z" fill="#3e86f0"/>
  <path id="svg_364" d="m92.8,142.67l5.52,-5.52a1.88,1.87 39.9 0 1 2.4,-0.21l9.63,6.7a0.95,0.95 0 0 1 0.13,1.45q-1.63,1.63 -5.02,4.18c-1.91,1.43 -3.41,1.17 -5.23,-0.02q-5.42,-3.55 -7.27,-4.83a1.15,1.15 0 0 1 -0.16,-1.75z" fill="#3e3ce6"/>
  <path id="svg_365" d="m274.67,142.79l3.66,-5.26a2,2 0 0 1 2.78,-0.5l11.57,8.06a2,2 0 0 1 0.5,2.78l-3.67,5.26a2,2 0 0 1 -2.78,0.5l-11.56,-8.06a2,2 0 0 1 -0.5,-2.78z" fill="#42f7bb"/>
  <path id="svg_366" d="m326.49,137.77q1.25,0.34 2.52,1.19q2.39,1.61 9.02,6.38c3.53,2.54 1.58,7.56 0.03,10.44a1.67,1.66 -58.3 0 1 -2.41,0.58l-11.75,-8.18a2.52,2.51 -62.5 0 1 -0.92,-2.94l2.59,-7a0.76,0.76 0 0 1 0.92,-0.47z" fill="#42f76c"/>
  <path id="svg_367" d="m300.12,145.46l2.31,-6.24a2.05,2.05 0 0 1 3.09,-0.97l11.51,8.01a2.05,2.05 0 0 1 0.75,2.4l-2.31,6.23a2.05,2.05 0 0 1 -3.09,0.97l-11.51,-8a2.05,2.05 0 0 1 -0.75,-2.4z" fill="#44f890"/>
  <path id="svg_368" d="m229.91,148.51a0.55,0.55 0 0 1 0.11,0.8q-2.41,2.92 -6.81,5.12a3.33,3.33 0 0 1 -3.39,-0.25l-10.55,-7.33a1.2,1.2 0 0 1 -0.01,-1.96l6.5,-4.68a1.91,1.9 44.4 0 1 2.2,-0.02l11.95,8.32z" fill="#40b8f2"/>
  <path id="svg_369" d="m162.17,150.55l-6.19,3.74a3.1,3.09 46.3 0 1 -3.31,-0.08l-9.14,-6.1a1.43,1.43 0 0 1 -0.07,-2.33l6.04,-4.52a1.84,1.83 43.3 0 1 2.12,-0.06l10.6,7.08a1.34,1.34 0 0 1 -0.05,2.27z" fill="#3d55eb"/>
  <path id="svg_370" d="m257.1,154.96l-5.48,3.95a2.09,2.09 0 0 1 -2.41,0.01l-11.03,-7.66a2.09,2.09 0 0 1 -0.02,-3.42l5.48,-3.95a2.09,2.09 0 0 1 2.41,-0.01l11.03,7.66a2.09,2.09 0 0 1 0.02,3.42z" fill="#41e0f6"/>
  <path id="svg_371" d="m190.74,152.41a0.51,0.51 0 0 1 -0.02,0.85l-7.36,4.69a1.63,1.6 29 0 1 -0.9,0.25q-1.56,-0.05 -3.23,-1.15q-5.1,-3.34 -7.66,-4.99q-1.17,-0.75 -1.69,-2.02a1.31,1.3 -26.1 0 1 0.56,-1.62l6.89,-3.98a1.95,1.94 47.3 0 1 2.09,0.09l11.32,7.88z" fill="#3d55eb"/>
  <path id="svg_372" d="m70.63,158.99a0.8,0.8 0 0 1 -1.03,0.09l-8.45,-5.88a1.49,1.49 0 0 1 -0.24,-2.24q0.4,-0.44 3.61,-3.91q2.2,-2.36 4.74,-0.84q1.84,1.09 7.23,4.74a1.3,1.3 0 0 1 0.19,1.99l-6.05,6.05z" fill="#6e3de4"/>
  <path id="svg_373" d="m100.11,153.79l-7.36,5.3a0.6,0.6 0 0 1 -0.7,0l-8.68,-6.04a1.36,1.36 0 0 1 -0.19,-2.08l4.45,-4.45a3.34,3.33 39.9 0 1 4.26,-0.38l8.21,5.72a1.19,1.18 -45.5 0 1 0.01,1.93z" fill="#3e3ce6"/>
  <path id="svg_374" d="m106.92,151.49l6.65,-4.78a1.39,1.39 0 0 1 1.61,-0.01l9.22,6.42a1.39,1.39 0 0 1 0.02,2.27l-6.65,4.78a1.39,1.39 0 0 1 -1.61,0.02l-9.22,-6.43a1.39,1.39 0 0 1 -0.02,-2.27z" fill="#3e3ce6"/>
  <path id="svg_375" d="m198.99,151.73l6.32,-3.65a1.98,1.98 0 0 1 2.12,0.09l10.29,7.16a1.98,1.98 0 0 1 -0.14,3.34l-6.32,3.65a1.98,1.98 0 0 1 -2.12,-0.09l-10.29,-7.16a1.98,1.98 0 0 1 0.14,-3.34z" fill="#3e86f0"/>
  <rect id="svg_376" transform="rotate(34.7 302.2 157.81)" rx="2.36" height="10.66" width="18.48" y="152.48" x="292.96001" fill="#42f7bb"/>
  <rect id="svg_377" transform="rotate(34.6 327.07 159.44)" rx="2.28" height="10.66" width="18.6" y="154.11" x="317.77001" fill="#42f76c"/>
  <path id="svg_378" d="m235.41,152.05l11.89,8.28a1.22,1.22 0 0 1 -0.08,2.06l-7.6,4.39a1.22,1.22 0 0 1 -1.31,-0.05l-11.9,-8.29a1.22,1.22 0 0 1 0.09,-2.06l7.6,-4.38a1.22,1.22 0 0 1 1.31,0.05z" fill="#40cef6"/>
  <path id="svg_379" d="m159.08,155.93l7.03,-4.06a1.59,1.59 0 0 1 1.7,0.07l9.82,6.83a1.59,1.59 0 0 1 -0.11,2.68l-7.03,4.06a1.59,1.59 0 0 1 -1.7,-0.07l-9.82,-6.83a1.59,1.59 0 0 1 0.11,-2.68z" fill="#3d55eb"/>
  <path id="svg_380" d="m90.25,160.58a0.53,0.53 0 0 1 0.04,0.84q-2.82,2.39 -5.82,5.05q-1.83,1.63 -4.18,0.14c-1.65,-1.05 -3.76,-2.99 -6.21,-4.65q-1.55,-1.06 -0.12,-2.5q0.63,-0.64 4.67,-4.52a2.5,2.49 -49.7 0 1 3.15,-0.26l8.47,5.9z" fill="#3e3ce6"/>
  <path id="svg_381" d="m96.27,161.92a1,0.99 42.6 0 1 -0.07,-1.58l6.13,-5.11a2.18,2.18 0 0 1 2.64,-0.11l8.89,6.19a1.05,1.05 0 0 1 0.01,1.72l-6.02,4.34a3.22,3.22 0 0 1 -3.72,0.03l-7.86,-5.48z" fill="#3e3ce6"/>
  <path id="svg_382" d="m199.22,158.04q3.54,2.54 7.55,5.23a1.01,1.01 0 0 1 -0.05,1.71l-6.8,3.93a3.23,3.22 42.3 0 1 -2.95,0.14q-1.93,-0.89 -3.58,-2.08q-3.53,-2.54 -7.55,-5.23a1.01,1.01 0 0 1 0.05,-1.71l6.8,-3.93a3.23,3.22 42.3 0 1 2.96,-0.14q1.93,0.89 3.57,2.08z" fill="#3d78ef"/>
  <path id="svg_383" d="m129.27,156.33l10.24,7.12a0.99,0.99 0 0 1 -0.07,1.67l-8.24,4.76a0.99,0.99 0 0 1 -1.06,-0.05l-9.4,-6.55a0.99,0.99 0 0 1 -0.01,-1.62l7.4,-5.32a0.99,0.99 0 0 1 1.14,-0.01z" fill="#3e3ce6"/>
  <path id="svg_384" d="m284.03,164.11l4.52,-4.52a2.17,2.17 0 0 1 2.77,-0.24l11.23,7.83a2.17,2.17 0 0 1 0.3,3.31l-4.51,4.51a2.17,2.17 0 0 1 -2.77,0.24l-11.24,-7.82a2.17,2.17 0 0 1 -0.3,-3.31z" fill="#43f7d3"/>
  <path id="svg_385" d="m236.22,168.89q0.03,0.45 -0.37,0.63q-3.77,1.64 -6.92,3.76a3.28,3.28 0 0 1 -3.7,-0.03l-10.82,-7.53a0.94,0.93 -42.6 0 1 0.07,-1.58l6.86,-3.96a3.08,3.08 0 0 1 3.05,-0.02q6.63,3.75 11.38,7.81q0.43,0.36 0.45,0.92z" fill="#3f9df3"/>
  <path id="svg_386" d="m315.03,161.98a1.44,1.44 0 0 1 2,-0.39l11.2,7.56a4.6,3.57 -56 0 1 0.38,5.81l-0.77,1.14a4.6,3.57 -56 0 1 -5.53,1.82l-11.2,-7.56a1.44,1.44 0 0 1 -0.39,-2l4.31,-6.38z" fill="#44f890"/>
  <path id="svg_387" d="m194.05,171.69q-1.98,1.92 -8.03,4.14a1.43,1.42 -43.7 0 1 -1.03,-0.02c-3.82,-1.53 -7.09,-4.23 -10.57,-6.65a1.16,1.16 0 0 1 -0.13,-1.8c2.33,-2.17 7.25,-5.96 10.57,-3.67q5.33,3.66 9.06,6.3a1.11,1.11 0 0 1 0.13,1.7z" fill="#3d55eb"/>
  <path id="svg_388" d="m91.41,174.08q-2.23,-1.48 -5.73,-4.31a0.65,0.64 -45.6 0 1 -0.01,-1l5.77,-4.82a2.96,2.96 0 0 1 2.93,-0.5q0.77,0.29 2.95,1.73q2.23,1.49 5.73,4.32a0.65,0.64 -45.6 0 1 0.01,1l-5.77,4.82a2.96,2.96 0 0 1 -2.93,0.5q-0.77,-0.29 -2.95,-1.74z" fill="#3e3ce6"/>
  <path id="svg_389" d="m80.31,168.99a0.52,0.51 -49.9 0 1 0.07,0.82q-2.67,2.42 -5.51,5.12q-1.73,1.66 -4.07,0.28c-1.65,-0.96 -3.77,-2.79 -6.22,-4.32q-1.55,-0.98 -0.21,-2.44q0.6,-0.64 4.41,-4.57a2.44,2.43 -51.7 0 1 3.06,-0.36l8.47,5.47z" fill="#6e3de4"/>
  <path id="svg_390" d="m108.73,170.31a0.12,0.12 0 0 1 0,-0.2l8.19,-6.23a0.47,0.46 -46.3 0 1 0.55,-0.02l10.1,6.81a1.17,1.17 0 0 1 -0.04,1.97l-7.12,4.41a1.83,1.83 0 0 1 -2,-0.05l-9.68,-6.69z" fill="#3e3ce6"/>
  <path id="svg_391" d="m152.77,175.43l-6.88,3.98a1.68,1.68 0 0 1 -1.8,-0.08l-8.63,-6.01a1.68,1.68 0 0 1 0.12,-2.83l6.89,-3.97a1.68,1.68 0 0 1 1.79,0.08l8.63,6a1.68,1.68 0 0 1 -0.12,2.83z" fill="#3e3ce6"/>
  <path id="svg_392" d="m222.36,176.3l-7.58,4.39a1.27,1.27 0 0 1 -1.36,-0.06l-10.81,-7.53a1.27,1.27 0 0 1 0.09,-2.14l7.59,-4.38a1.27,1.27 0 0 1 1.36,0.06l10.8,7.52a1.27,1.27 0 0 1 -0.09,2.14z" fill="#3d78ef"/>
  <path id="svg_393" d="m273.7,171.8l6.18,-3.57a2.14,2.14 0 0 1 2.3,0.1l10.96,7.63a2.14,2.14 0 0 1 -0.16,3.61l-6.18,3.57a2.14,2.14 0 0 1 -2.3,-0.1l-10.96,-7.63a2.14,2.14 0 0 1 0.16,-3.61z" fill="#44f6f4"/>
  <path id="svg_394" d="m76.29,178.96a1.08,1.07 -50.2 0 1 -0.14,-1.65l6.05,-6.05a0.91,0.9 40.2 0 1 1.17,-0.09q3,2.19 7.88,5.33q0.76,0.49 0.94,0.87a1.69,1.69 0 0 1 -0.5,2.12l-5.79,4.3a2.23,2.23 0 0 1 -2.61,0.04l-7,-4.87z" fill="#6e3de4"/>
  <path id="svg_395" d="m301.94,176.67l4.94,-4.94a1.87,1.87 0 0 1 2.39,-0.22l12.11,8.43a1.87,1.87 0 0 1 0.03,3.05l-5.93,4.27a1.87,1.87 0 0 1 -2.16,0.01l-11.13,-7.74a1.87,1.87 0 0 1 -0.25,-2.86z" fill="#42f7bb"/>
  <path id="svg_396" d="m55.19,177.39l4.97,-4.96a1.83,1.83 0 0 1 2.34,-0.21l6.48,4.52a1.83,1.83 0 0 1 0.25,2.8l-4.96,4.96a1.83,1.83 0 0 1 -2.34,0.21l-6.49,-4.52a1.83,1.83 0 0 1 -0.25,-2.8z" fill="#6e3de4"/>
  <path id="svg_397" d="m99.55,176.49l5.85,-4.21a1.91,1.91 0 0 1 2.21,-0.02l7.62,5.31a1.91,1.91 0 0 1 -0.13,3.22l-6.5,3.75a1.91,1.91 0 0 1 -2.05,-0.08l-6.97,-4.85a1.91,1.91 0 0 1 -0.03,-3.12z" fill="#3e3ce6"/>
  <path id="svg_398" d="m196.87,184.31c-2.66,-1.87 -5.41,-3.33 -7.79,-5.08a0.92,0.92 0 0 1 0.09,-1.55q3.52,-1.96 6.4,-3.4c2.39,-1.2 4.56,0.08 6.71,1.59c2.66,1.88 5.41,3.34 7.79,5.09a0.92,0.92 0 0 1 -0.09,1.55q-3.53,1.96 -6.4,3.4c-2.39,1.2 -4.56,-0.08 -6.71,-1.6z" fill="#3d55eb"/>
  <path id="svg_399" d="m141.69,180.32a0.71,0.71 0 0 1 -0.05,1.2l-7.57,4.37a2.93,2.92 47.4 0 1 -3.12,-0.13l-8.2,-5.72a1,0.99 -42.7 0 1 0.07,-1.68l7.15,-4.13a2.96,2.93 -42.4 0 1 3.16,0.13l8.56,5.96z" fill="#3e3ce6"/>
  <path id="svg_400" d="m281.41,186.48l-6.75,3.9a1.74,1.74 0 0 1 -1.87,-0.08l-10.99,-7.66a1.74,1.74 0 0 1 0.12,-2.94l6.74,-3.89a1.74,1.74 0 0 1 1.87,0.08l11,7.66a1.74,1.74 0 0 1 -0.12,2.93z" fill="#41e0f6"/>
  <path id="svg_401" d="m168.63,184.06q-0.1,0.31 -0.58,0.57q-1.95,1.1 -6.57,3.24q-2.86,1.33 -5.22,-0.27q-4.59,-3.12 -7.48,-5.33a1.25,1.24 51.9 0 1 0.25,-2.13l7.73,-3.39a1.86,1.82 38.7 0 1 1.14,-0.11q1.95,0.4 3.71,1.69q3.24,2.4 6.63,4.59q0.63,0.4 0.39,1.14z" fill="#3e3ce6"/>
  <path id="svg_402" d="m74.34,180.3l7.23,5.04a1.14,1.14 0 0 1 0.09,1.8l-5.41,4.57a2.52,2.5 -71.8 0 1 -1.02,0.52c-2.71,0.65 -7.08,-3.39 -8.94,-5.3a0.77,0.76 -44.7 0 1 0.01,-1.08l5.3,-5.3a2.15,2.14 -50.1 0 1 2.74,-0.25z" fill="#6e3de4"/>
  <path id="svg_403" d="m105.25,186.06q0.22,0.77 -1.55,2q-1.63,1.12 -6.27,3.79q-1.15,0.67 -3.25,-0.66q-3.97,-2.52 -6.41,-4.32a1.18,1.18 0 0 1 0.05,-1.95l6.36,-4.12a2.93,2.92 -45.1 0 1 3.17,-0.02l7.64,4.92a0.6,0.6 0 0 1 0.26,0.36z" fill="#6e3de4"/>
  <path id="svg_404" d="m290.07,185.81a0.51,0.51 0 0 1 0.23,-0.57q2.34,-1.39 5.57,-3.88q2.51,-1.93 5.05,-0.07q5.52,4.03 10.43,6.59q0.88,0.46 0.93,1.82a1.7,1.69 74.1 0 1 -0.85,1.54l-5.95,3.44a3.26,3.25 45.1 0 1 -3.28,-0.01q-6.82,-4 -11.25,-7.59q-0.69,-0.56 -0.88,-1.27z" fill="#44f6f4"/>
  <path id="svg_405" d="m129.46,187.54q0.18,0.8 -1.7,1.96q-1.73,1.06 -6.63,3.55q-1.22,0.62 -3.3,-0.86q-3.93,-2.8 -6.33,-4.78a1.22,1.22 0 0 1 0.16,-1.99l6.74,-3.88a3,2.99 -42.1 0 1 3.25,0.16l7.56,5.46a0.62,0.62 0 0 1 0.25,0.38z" fill="#3e3ce6"/>
  <path id="svg_406" d="m155.73,190.35q-0.08,0.31 -0.55,0.58q-1.88,1.14 -6.34,3.39q-2.76,1.39 -5.13,-0.1q-4.6,-2.91 -7.51,-4.98a1.22,1.22 0 0 1 0.18,-2.1l7.48,-3.57a1.82,1.79 36.8 0 1 1.11,-0.15q1.93,0.33 3.69,1.54q3.26,2.24 6.65,4.28q0.64,0.38 0.42,1.11z" fill="#3e3ce6"/>
  <path id="svg_407" d="m255.87,194.02c-2.71,-2.02 -5.52,-3.62 -7.94,-5.51a0.96,0.95 50.1 0 1 0.14,-1.6q3.72,-1.93 6.75,-3.35c2.51,-1.16 4.73,0.23 6.91,1.86c2.71,2.03 5.52,3.63 7.94,5.52a0.96,0.95 50.1 0 1 -0.14,1.6q-3.72,1.93 -6.75,3.34c-2.51,1.17 -4.73,-0.22 -6.91,-1.86z" fill="#40b8f2"/>
  <path id="svg_408" d="m183.14,194.08q-0.1,0.31 -0.6,0.57q-1.99,1.08 -6.71,3.19q-2.92,1.3 -5.29,-0.36q-4.61,-3.23 -7.51,-5.51a1.27,1.26 52.7 0 1 0.29,-2.16l7.89,-3.32a1.88,1.85 39.5 0 1 1.16,-0.1q1.97,0.44 3.73,1.77q3.26,2.48 6.66,4.75q0.64,0.42 0.38,1.17z" fill="#3e3ce6"/>
  <path id="svg_409" d="m93.75,193.6a0.67,0.66 38.9 0 1 0.11,1q-2.86,3.08 -7.83,5.78a0.95,0.94 47.9 0 1 -0.99,-0.05l-7.12,-4.96a0.99,0.98 -50.1 0 1 -0.13,-1.51l5.6,-5.6a1.86,1.86 0 0 1 2.38,-0.21l7.98,5.55z" fill="#6e3de4"/>
  <path id="svg_410" d="m278.19,193.89a1.09,1.09 0 0 1 0.21,-1.9q3.35,-1.38 6.12,-3.67a1.79,1.78 22.7 0 1 0.96,-0.39q2.21,-0.2 3.51,0.71q5.91,4.15 10.73,7.15a1.4,1.4 0 0 1 -0.11,2.44q-3.82,1.94 -5.86,3.2q-1.28,0.79 -4.87,-0.14a0.47,0.39 -16.3 0 1 -0.16,-0.07l-10.53,-7.33z" fill="#44f6f4"/>
  <path id="svg_411" d="m100.67,192.44l6.66,-3.85a1.81,1.81 0 0 1 1.94,0.09l6.98,4.85a1.81,1.81 0 0 1 -0.13,3.06l-6.66,3.85a1.81,1.81 0 0 1 -1.94,-0.09l-6.98,-4.85a1.81,1.81 0 0 1 0.13,-3.06z" fill="#6e3de4"/>
  <path id="svg_412" d="m57.36,194.12l4.92,-4.92a1.85,1.85 0 0 1 2.36,-0.21l6.08,4.24a1.85,1.85 0 0 1 0.25,2.82l-4.91,4.91a1.85,1.85 0 0 1 -2.36,0.22l-6.08,-4.24a1.85,1.85 0 0 1 -0.26,-2.82z" fill="#9f3de9"/>
  <path id="svg_413" d="m234,193.23l9.75,-4.1a1.16,1.15 51 0 1 1.1,0.12l10.7,7.45a1.29,1.29 0 0 1 -0.24,2.25l-6.38,2.69a5.43,5.42 -38.9 0 1 -5.21,-0.55l-9.82,-6.84a0.58,0.58 0 0 1 0.1,-1.02z" fill="#3e86f0"/>
  <path id="svg_414" d="m142.45,196.02a0.7,0.7 0 0 1 -0.02,1.18l-7.36,4.44a2.88,2.88 0 0 1 -3.07,-0.06l-8.18,-5.47a0.98,0.98 0 0 1 0.04,-1.65l6.95,-4.2a2.91,2.89 -43.5 0 1 3.11,0.06l8.53,5.7z" fill="#3e3ce6"/>
  <path id="svg_415" d="m149.32,196.36l9.49,-4a0.91,0.91 0 0 1 0.87,0.1l9.39,6.54a0.91,0.91 0 0 1 -0.16,1.58l-9.5,4a0.91,0.91 0 0 1 -0.87,-0.1l-9.38,-6.54a0.91,0.91 0 0 1 0.16,-1.58z" fill="#3e3ce6"/>
  <path id="svg_416" d="m278.79,196.92c2.74,2.09 5.58,3.73 8.03,5.66a0.97,0.97 0 0 1 -0.15,1.63q-3.79,1.94 -6.88,3.36c-2.56,1.17 -4.8,-0.26 -7.01,-1.94c-2.74,-2.07 -5.59,-3.72 -8.03,-5.65a0.97,0.97 0 0 1 0.15,-1.63q3.79,-1.94 6.88,-3.35c2.56,-1.18 4.8,0.25 7.01,1.92z" fill="#40cef6"/>
  <path id="svg_417" d="m228,205.84q-4.11,-2.6 -8.24,-5.59q-0.3,-0.21 -0.34,-0.28a0.94,0.94 0 0 1 0.5,-1.37l8.62,-3a4.01,4 -45.4 0 1 2.58,-0.02q0.81,0.27 2.63,1.51q4.2,2.47 8.33,5.46q0.29,0.21 0.33,0.28a0.94,0.94 0 0 1 -0.5,1.37l-8.61,3a4.01,4 -45.4 0 1 -2.59,0.02q-0.81,-0.27 -2.71,-1.38z" fill="#3d78ef"/>
  <path id="svg_418" d="m89.2,201.11l6.87,-4.94a1.26,1.26 0 0 1 1.45,-0.01l7.79,5.43a1.26,1.26 0 0 1 -0.09,2.12l-7.63,4.4a1.26,1.26 0 0 1 -1.35,-0.06l-7.02,-4.88a1.26,1.26 0 0 1 -0.02,-2.06z" fill="#6e3de4"/>
  <path id="svg_419" d="m177.25,199.8l9.17,-3.85a1.05,1.05 0 0 1 1,0.11l9.9,6.89a1.05,1.05 0 0 1 -0.26,1.86l-9.88,3.35a1.05,1.05 0 0 1 -0.94,-0.13l-9.18,-6.4a1.05,1.05 0 0 1 0.19,-1.83z" fill="#3e3ce6"/>
  <path id="svg_420" d="m68.33,201.19l5.92,-4.25a1.85,1.85 0 0 1 2.13,-0.02l6.11,4.25a1.85,1.85 0 0 1 0.02,3.02l-5.92,4.25a1.85,1.85 0 0 1 -2.13,0.02l-6.11,-4.25a1.85,1.85 0 0 1 -0.02,-3.02z" fill="#9f3de9"/>
  <path id="svg_421" d="m129.82,202.95q0.2,0.78 -1.6,1.99q-1.66,1.1 -6.38,3.71q-1.17,0.65 -3.27,-0.72q-3.95,-2.61 -6.38,-4.47a1.19,1.19 0 0 1 0.09,-1.96l6.48,-4.04a2.95,2.94 -44.2 0 1 3.19,0.04l7.61,5.09a0.61,0.6 -80.6 0 1 0.26,0.36z" fill="#3e3ce6"/>
  <path id="svg_422" d="m137.11,202.38l8.38,-3.53a1.45,1.45 0 0 1 1.4,0.15l7.84,5.46a1.45,1.45 0 0 1 -0.27,2.53l-8.38,3.53a1.45,1.45 0 0 1 -1.4,-0.15l-7.84,-5.46a1.45,1.45 0 0 1 0.27,-2.53z" fill="#3e3ce6"/>
  <path id="svg_423" d="m225.96,209.85l-9.09,3.09a1.38,1.38 0 0 1 -1.23,-0.18l-9.58,-6.67a1.38,1.38 0 0 1 0.35,-2.44l9.08,-3.09a1.38,1.38 0 0 1 1.23,0.18l9.59,6.67a1.38,1.38 0 0 1 -0.35,2.44z" fill="#3d55eb"/>
  <path id="svg_424" d="m264.49,202.52q7.49,5.19 8.47,5.99a0.65,0.65 0 0 1 -0.09,1.08q-3.55,1.99 -7.38,3.1c-2.85,0.83 -4.26,0.48 -6.81,-1.28q-7.49,-5.19 -8.47,-5.99a0.65,0.65 0 0 1 0.1,-1.08q3.55,-1.99 7.38,-3.1c2.84,-0.83 4.26,-0.48 6.8,1.28z" fill="#3f9df3"/>
  <path id="svg_425" d="m117.75,209.88q0.22,0.75 -1.5,1.98q-1.58,1.13 -6.11,3.83q-1.13,0.68 -3.21,-0.6q-3.95,-2.43 -6.37,-4.17a1.17,1.17 0 0 1 0.02,-1.91l6.2,-4.15a2.88,2.87 -46 0 1 3.12,-0.06l7.59,4.73a0.59,0.59 0 0 1 0.26,0.35z" fill="#6e3de4"/>
  <path id="svg_426" d="m58.76,210.94l5.4,-5.41a1.52,1.52 0 0 1 1.94,-0.17l6.28,4.36a1.52,1.52 0 0 1 0.21,2.32l-5.41,5.41a1.52,1.52 0 0 1 -1.94,0.17l-6.27,-4.36a1.52,1.52 0 0 1 -0.21,-2.32z" fill="#b840e9"/>
  <path id="svg_427" d="m133.24,205.67c1.72,0.13 4.86,2.71 8.93,5.55a0.8,0.8 0 0 1 -0.08,1.36c-1.56,0.86 -7.25,4.36 -9.72,4.16c-2.48,-0.19 -7.55,-4.54 -8.96,-5.64a0.8,0.8 0 0 1 0.14,-1.35c4.46,-2.17 7.97,-4.22 9.69,-4.08z" fill="#3e3ce6"/>
  <path id="svg_428" d="m191.31,209.22l9.84,-3.34a1.11,1.11 0 0 1 0.99,0.14l9.35,6.5a1.11,1.11 0 0 1 -0.27,1.97l-9.85,3.34a1.11,1.11 0 0 1 -0.99,-0.14l-9.35,-6.5a1.11,1.11 0 0 1 0.28,-1.97z" fill="#3e3ce6"/>
  <path id="svg_429" d="m249.41,207.9q4.12,2.49 8.16,5.49q0.29,0.21 0.33,0.28a0.93,0.93 0 0 1 -0.51,1.35l-8.55,2.86a3.96,3.96 0 0 1 -2.56,-0.01q-0.79,-0.28 -2.66,-1.4q-4.03,-2.62 -8.08,-5.62q-0.28,-0.21 -0.32,-0.28a0.93,0.93 0 0 1 0.51,-1.35l8.55,-2.86a3.96,3.96 0 0 1 2.55,0.01q0.8,0.28 2.58,1.53z" fill="#3d78ef"/>
  <path id="svg_430" d="m149.09,212.14c1.6,-1.85 7.64,-3.96 8.66,-4.19q0.9,-0.2 3.38,0.71a0.85,0.64 -8 0 1 0.18,0.1l6.87,5.05a0.92,0.91 -38.3 0 1 -0.19,1.58l-7.68,3.23a4.41,4.39 50.9 0 1 -4.24,-0.45l-6.81,-4.74a0.88,0.88 0 0 1 -0.17,-1.29z" fill="#3e3ce6"/>
  <path id="svg_431" d="m228.55,221.42q-4.54,-2.86 -8.71,-6.06a0.49,0.49 0 0 1 0.11,-0.85q4.91,-2.05 9.87,-3.01q1.95,-0.37 4.12,0.99q4.54,2.86 8.71,6.06a0.49,0.49 0 0 1 -0.11,0.85q-4.91,2.05 -9.87,3.01q-1.95,0.37 -4.12,-0.99z" fill="#3d55eb"/>
  <path id="svg_432" d="m183.7,221.51q-5.76,-3.7 -7.9,-5.52a0.44,0.44 0 0 1 0.09,-0.73q2.17,-1.08 3.97,-1.76c3.41,-1.31 6.33,-2.75 9.12,-0.97q5.76,3.7 7.9,5.52a0.44,0.44 0 0 1 -0.09,0.73q-2.17,1.08 -3.97,1.77c-3.42,1.3 -6.34,2.75 -9.12,0.96z" fill="#3e3ce6"/>
  <path id="svg_433" d="m97.51,212.03c1.75,-0.03 5.87,3.3 7.38,4.42q1.03,0.76 1.04,1.24q0.01,0.48 -0.99,1.27c-1.48,1.17 -5.48,4.64 -7.23,4.67c-1.75,0.03 -5.88,-3.3 -7.39,-4.42q-1.02,-0.75 -1.03,-1.24q-0.01,-0.48 0.99,-1.27c1.47,-1.17 5.48,-4.64 7.23,-4.67z" fill="#6e3de4"/>
  <path id="svg_434" d="m112.2,216.63l7.76,-4.48a1.25,1.25 0 0 1 1.34,0.05l7.3,5.09a1.25,1.25 0 0 1 -0.08,2.1l-7.76,4.48a1.25,1.25 0 0 1 -1.34,-0.05l-7.3,-5.09a1.25,1.25 0 0 1 0.08,-2.1z" fill="#6e3de4"/>
  <path id="svg_435" d="m83.01,219.78l-4.67,4.68a2.05,2.05 0 0 1 -2.62,0.23l-5.46,-3.8a2.05,2.05 0 0 1 -0.28,-3.13l4.68,-4.68a2.05,2.05 0 0 1 2.62,-0.23l5.45,3.8a2.05,2.05 0 0 1 0.28,3.13z" fill="#b840e9"/>
  <path id="svg_436" d="m136.88,217.29l7.99,-3.37a1.61,1.61 0 0 1 1.55,0.17l6.92,4.82a1.61,1.61 0 0 1 -0.3,2.8l-7.99,3.37a1.61,1.61 0 0 1 -1.55,-0.17l-6.92,-4.82a1.61,1.61 0 0 1 0.3,-2.8z" fill="#3e3ce6"/>
  <path id="svg_437" d="m205.74,218.64l9.79,-2.91a1.25,1.25 0 0 1 1.07,0.17l9.55,6.65a1.25,1.25 0 0 1 -0.51,2.25l-11.21,1.92a1.25,1.25 0 0 1 -0.92,-0.2l-8.13,-5.66a1.25,1.25 0 0 1 0.36,-2.22z" fill="#3e3ce6"/>
  <path id="svg_438" d="m162.13,219.87l9.74,-3.3a1.14,1.14 0 0 1 1.01,0.15l8.29,5.76a1.14,1.14 0 0 1 -0.29,2.02l-9.72,3.3a1.14,1.14 0 0 1 -1.02,-0.14l-8.3,-5.77a1.14,1.14 0 0 1 0.29,-2.02z" fill="#3e3ce6"/>
  <path id="svg_439" d="m109.76,219.67l6.02,4.19a1.86,1.86 0 0 1 0.02,3.04l-5.94,4.27a1.86,1.86 0 0 1 -2.15,0.02l-6.02,-4.19a1.86,1.86 0 0 1 -0.02,-3.04l5.94,-4.27a1.86,1.86 0 0 1 2.15,-0.02z" fill="#6e3de4"/>
  <path id="svg_440" d="m87.68,220l6.09,4.24a1.66,1.66 0 0 1 0.23,2.53l-5.2,5.2a1.66,1.66 0 0 1 -2.12,0.19l-6.08,-4.24a1.66,1.66 0 0 1 -0.23,-2.53l5.19,-5.2a1.66,1.66 0 0 1 2.12,-0.19z" fill="#9f3de9"/>
  <path id="svg_441" d="m124.04,223.86l8.04,-3.38a1.6,1.6 0 0 1 1.53,0.16l6.68,4.65a1.6,1.6 0 0 1 -0.29,2.79l-8.04,3.38a1.6,1.6 0 0 1 -1.53,-0.16l-6.68,-4.65a1.6,1.6 0 0 1 0.29,-2.79z" fill="#6e3de4"/>
  <path id="svg_442" d="m189.84,223.72l10.58,-3.14a1,1 0 0 1 0.85,0.14l8.97,6.24a1,1 0 0 1 -0.28,1.78l-10.58,3.13a1,1 0 0 1 -0.85,-0.13l-8.97,-6.24a1,1 0 0 1 0.28,-1.78z" fill="#3e3ce6"/>
  <path id="svg_443" d="m67.76,234.22q-4.18,-2.19 -6.18,-3.84q-2.24,-1.84 -0.14,-3.98c1.64,-1.68 3.88,-5.63 6.95,-4.07q1.77,0.89 5.76,3.89a1.37,1.37 0 0 1 0.15,2.07l-5.82,5.82a0.61,0.61 0 0 1 -0.72,0.11z" fill="#b840e9"/>
  <path id="svg_444" d="m157.76,222.55q1.14,0.1 1.63,0.42q3.52,2.23 6.98,4.55q0.87,0.58 0.82,1.15q-0.05,0.57 -1.02,0.99q-3.82,1.65 -7.68,3.22q-0.54,0.22 -1.68,0.11q-1.14,-0.1 -1.64,-0.41q-3.51,-2.24 -6.97,-4.55q-0.88,-0.59 -0.83,-1.16q0.06,-0.57 1.02,-0.98q3.82,-1.66 7.68,-3.22q0.55,-0.22 1.69,-0.12z" fill="#3e3ce6"/>
  <path id="svg_445" d="m185.13,225.64q1.09,0.14 1.68,0.54q4.31,2.94 7.62,5.52a0.81,0.81 0 0 1 -0.23,1.4q-0.11,0.04 -8.41,3.03q-0.94,0.34 -2.02,0.2q-1.09,-0.13 -1.91,-0.7q-7.29,-4.97 -7.38,-5.04a0.81,0.81 0 0 1 0.13,-1.41q3.85,-1.67 8.75,-3.44q0.68,-0.24 1.77,-0.1z" fill="#3e3ce6"/>
  <path id="svg_446" d="m128.63,233.06q0,0.31 -0.13,0.4q-3.84,2.76 -7.79,5.05a1.74,1.72 41.8 0 1 -1.57,0.08q-4.24,-1.91 -7.49,-5.27q-0.07,-0.08 -0.06,-0.39q0,-0.28 0.07,-0.35q3.29,-3.33 7.55,-5.18a1.74,1.72 -41.1 0 1 1.57,0.1q3.92,2.33 7.72,5.14q0.13,0.09 0.13,0.42z" fill="#6e3de4"/>
  <path id="svg_447" d="m96.79,239.2l-5.59,-3.9a1.72,1.72 0 0 1 -0.24,-2.62l4.92,-4.92a1.72,1.72 0 0 1 2.07,-0.27l7.17,4.14a1.72,1.72 0 0 1 0.14,2.88l-6.48,4.67a1.72,1.72 0 0 1 -1.99,0.02z" fill="#9f3de9"/>
  <path id="svg_448" d="m143.97,228.58c2.39,0.12 7.39,4.2 8.78,5.22a0.78,0.77 -40.6 0 1 -0.1,1.32c-4.26,2.2 -7.59,4.26 -9.26,4.17c-1.66,-0.09 -4.76,-2.5 -8.76,-5.14a0.78,0.77 46.7 0 1 0.04,-1.32c1.49,-0.86 6.9,-4.38 9.3,-4.25z" fill="#6e3de4"/>
  <path id="svg_449" d="m84.38,235.87l-4.84,4.83a1.9,1.9 0 0 1 -2.43,0.22l-5.55,-3.86a1.9,1.9 0 0 1 -0.26,-2.91l4.84,-4.84a1.9,1.9 0 0 1 2.42,-0.21l5.56,3.86a1.9,1.9 0 0 1 0.26,2.91z" fill="#b840e9"/>
  <path id="svg_450" d="m159.7,235.13q0.44,-0.79 1.43,-1.25q2.1,-0.98 7.32,-2.67a4.43,4.41 -36.5 0 1 3.87,0.57l6.72,4.68a0.96,0.96 0 0 1 -0.24,1.7l-9.49,3.22a2.14,2.11 -36.6 0 1 -1.91,-0.27l-7.52,-5.23a0.59,0.58 31.9 0 1 -0.18,-0.75z" fill="#3e3ce6"/>
  <path id="svg_451" d="m61.32,243.74a1.73,1.73 0 0 1 -2.42,0.4l-4.53,-3.24a3.18,2.88 35.6 0 1 -0.9,-4.19l2.88,-4.04a3.18,2.88 35.6 0 1 4.27,-0.49l4.52,3.25a1.73,1.73 0 0 1 0.4,2.41l-4.22,5.9z" fill="#e141ec"/>
  <path id="svg_452" d="m138.79,242.07l-6.95,4.01a1.64,1.64 0 0 1 -1.64,0l-6.96,-4.02a1.64,1.64 0 0 1 0,-2.84l6.95,-4.02a1.64,1.64 0 0 1 1.64,0l6.96,4.03a1.64,1.64 0 0 1 0,2.84z" fill="#6e3de4"/>
  <path id="svg_453" d="m108.41,235.18c1.83,-0.08 5.71,2.88 7.25,3.96q0.82,0.58 0.85,1.29q0.03,0.71 -0.74,1.36c-1.45,1.21 -5.07,4.48 -6.89,4.56c-1.83,0.07 -5.71,-2.89 -7.25,-3.97q-0.82,-0.58 -0.85,-1.29q-0.03,-0.71 0.74,-1.36c1.45,-1.21 5.06,-4.48 6.89,-4.55z" fill="#9f3de9"/>
  <path id="svg_454" d="m88.99,236.28l5.48,3.8a1.96,1.96 0 0 1 0.27,3l-4.75,4.75a1.96,1.96 0 0 1 -2.51,0.22l-5.48,-3.81a1.96,1.96 0 0 1 -0.26,-3l4.75,-4.74a1.96,1.96 0 0 1 2.5,-0.22z" fill="#b840e9"/>
  <path id="svg_455" d="m63.58,244.21l3.39,-4.87a2.34,2.34 0 0 1 3.26,-0.59l4.83,3.36a2.34,2.34 0 0 1 0.58,3.26l-3.39,4.88a2.34,2.34 0 0 1 -3.26,0.58l-4.83,-3.36a2.34,2.34 0 0 1 -0.58,-3.26z" fill="#e141ec"/>
  <path id="svg_456" d="m127.67,247.84q0,0.11 -0.01,0.17c-0.15,0.52 -3.03,2.61 -5.62,4.55q-2.48,1.85 -4.73,0.41q-2.79,-1.78 -5.04,-3.49q-0.69,-0.52 -0.71,-1.15q-0.02,-0.62 0.64,-1.19q2.14,-1.84 4.82,-3.79q2.15,-1.57 4.74,0.13c2.71,1.77 5.71,3.68 5.88,4.2q0.03,0.05 0.03,0.16z" fill="#9f3de9"/>
  <path id="svg_457" d="m141.99,253.45c-2.35,-0.05 -7.36,-3.87 -8.74,-4.82a0.76,0.76 0 0 1 0.06,-1.29c4.08,-2.28 7.26,-4.4 8.89,-4.37c1.63,0.04 4.73,2.29 8.71,4.74a0.76,0.76 0 0 1 0.01,1.28c-1.43,0.9 -6.59,4.5 -8.93,4.46z" fill="#6e3de4"/>
  <path id="svg_458" d="m91.96,248.74l5.02,-5.01a1.61,1.61 0 0 1 1.94,-0.25l6.32,3.65a1.61,1.61 0 0 1 0.34,2.53l-5.46,5.46a1.61,1.61 0 0 1 -2.06,0.18l-5.88,-4.1a1.61,1.61 0 0 1 -0.22,-2.46z" fill="#b840e9"/>
  <path id="svg_459" d="m79.47,257.84l-5.12,-3.55a2.15,2.15 0 0 1 -0.53,-2.99l3.55,-5.12a2.15,2.15 0 0 1 2.99,-0.53l5.12,3.55a2.15,2.15 0 0 1 0.53,2.99l-3.55,5.12a2.15,2.15 0 0 1 -2.99,0.53z" fill="#e141ec"/>
  <rect id="svg_460" transform="rotate(33.1 62.67 255.47)" rx="1.88" height="10.56" width="10.58" y="250.19" x="57.38" fill="#e141ec"/>
  <path id="svg_461" d="m122.07,255.54q0,-0.28 0.07,-0.35q3.09,-3.35 7.18,-5.29a1.7,1.68 -43 0 1 1.53,0.04q3.9,2.15 7.7,4.76q0.12,0.09 0.13,0.41q0.01,0.3 -0.11,0.4q-3.65,2.81 -7.42,5.16a1.7,1.68 39.8 0 1 -1.53,0.13q-4.19,-1.72 -7.46,-4.89q-0.08,-0.07 -0.09,-0.37z" fill="#9f3de9"/>
  <path id="svg_462" d="m108.61,262.36l-5.86,-4.08a1.68,1.68 0 0 1 -0.23,-2.57l5.06,-5.06a1.68,1.68 0 0 1 2.14,-0.19l5.86,4.08a1.68,1.68 0 0 1 0.23,2.57l-5.06,5.06a1.68,1.68 0 0 1 -2.14,0.19z" fill="#b840e9"/>
  <rect id="svg_463" transform="rotate(35.4 90.25 258.77)" rx="1.78" height="10.52" width="10.54" y="253.50999" x="84.98" fill="#e141ec"/>
  <path id="svg_464" d="m79.31,261.04c0,0.01 0.04,0.23 0.03,0.26q-1.41,3.81 -3.67,7.31a1.69,1.68 -57.3 0 1 -2.32,0.51q-2.25,-1.41 -5.3,-3.83q-0.68,-0.54 -0.88,-1.39q-0.21,-0.86 0.16,-1.65q1.66,-3.52 3.04,-5.79a1.69,1.68 30.8 0 1 2.31,-0.58q3.58,2.13 6.54,4.91c0.03,0.02 0.09,0.24 0.09,0.25z" fill="#e141ec"/>
  <path id="svg_465" d="m120.24,257.61l5.73,3.99a1.71,1.71 0 0 1 0.24,2.61l-5.07,5.08a1.71,1.71 0 0 1 -2.19,0.19l-5.73,-3.99a1.71,1.71 0 0 1 -0.24,-2.61l5.07,-5.08a1.71,1.71 0 0 1 2.19,-0.19z" fill="#9f3de9"/>
  <path id="svg_466" d="m100.72,259.92l5.37,3.1a2.16,2.16 0 0 1 0.7,3.11l-3.53,5.06a2.16,2.16 0 0 1 -2.85,0.64l-5.37,-3.1a2.16,2.16 0 0 1 -0.7,-3.11l3.53,-5.06a2.16,2.16 0 0 1 2.85,-0.64z" fill="#e141ec"/>
  <path id="svg_467" d="m83.71,263.26l5.05,3.51a2.14,2.14 0 0 1 0.63,2.82l-3.21,5.55a2.14,2.14 0 0 1 -3.07,0.69l-5.05,-3.51a2.14,2.14 0 0 1 -0.63,-2.82l3.21,-5.55a2.14,2.14 0 0 1 3.07,-0.69z" fill="#e141ec"/>
  <rect id="svg_468" transform="rotate(36.6 110.94 272.94)" rx="1.93" height="10.42" width="10.42" y="267.73" x="105.73" fill="#b840e9"/>
  <path id="svg_469" d="m70.93,280.84a1.35,1.35 0 0 1 -2.04,0.66l-5.91,-4.08a2.43,2.43 0 0 1 -0.9,-2.83l2.3,-6.41a1.65,1.65 0 0 1 2.44,-0.84l6.45,4.14a1.18,1.17 -64.1 0 1 0.47,1.37l-2.81,7.99z" fill="#ec42c9"/>
  <path id="svg_470" d="m99.41,274.04a1.95,1.95 0 0 1 0.61,2.68l-3.11,4.96a3.11,2.9 32.1 0 1 -4.17,0.8l-3.86,-2.42a3.11,2.9 32.1 0 1 -1.1,-4.11l3.11,-4.95a1.95,1.95 0 0 1 2.69,-0.62l5.83,3.66z" fill="#e141ec"/>
  <path id="svg_471" d="m84.3,280.4l-2.77,7.48a1.39,1.39 0 0 1 -2.09,0.66l-6.28,-4.36a1.39,1.39 0 0 1 -0.51,-1.62l2.78,-7.49a1.39,1.39 0 0 1 2.09,-0.65l6.27,4.36a1.39,1.39 0 0 1 0.51,1.62z" fill="#ec42c9"/>
  <path id="svg_472" d="m110.3,283.23q-1.61,1.89 -3.09,6.12a1.81,1.81 0 0 1 -2.74,0.88l-5.64,-3.92a2.17,2.17 0 0 1 -0.64,-2.87l3.44,-5.96a1.35,1.35 0 0 1 1.72,-0.55q3.35,1.51 6.93,5.33a0.73,0.72 -46.6 0 1 0.02,0.97z" fill="#e141ec"/>
  <path id="svg_473" d="m60.92,279.67q0.58,-0.48 2.31,0.57q1.59,0.98 5.67,3.94q1.02,0.74 0.68,3.06q-0.65,4.38 -1.27,7.17a1.12,1.12 0 0 1 -1.69,0.7l-5.99,-3.89a2.76,2.75 20.9 0 1 -1.23,-2.72l1.31,-8.46a0.57,0.57 0 0 1 0.21,-0.37z" fill="#ec429f"/>
  <path id="svg_474" d="m94.35,286.84c0.59,1.7 -1.5,6.75 -2.36,8.8a0.74,0.73 23.9 0 1 -1,0.37c-1.94,-0.92 -6.69,-3.52 -7.36,-5.45c-0.67,-1.93 1.45,-6.91 2.41,-8.85a0.74,0.73 -62.2 0 1 1.01,-0.31c1.94,1.07 6.71,3.74 7.3,5.44z" fill="#e141ec"/>
  <path id="svg_475" d="m79.3,302.67q-0.58,0.5 -2.37,-0.53q-1.65,-0.96 -5.88,-3.9q-1.06,-0.73 -0.76,-3.1q0.56,-4.49 1.13,-7.36a1.14,1.14 0 0 1 1.72,-0.75l6.2,3.84a2.82,2.81 19.6 0 1 1.31,2.75l-1.14,8.68a0.58,0.58 0 0 1 -0.21,0.37z" fill="#ec429f"/>
  <path id="svg_476" d="m81.63,304.4c-0.93,-2.17 0.47,-8.36 0.77,-10.03a0.76,0.76 0 0 1 1.2,-0.48c3.8,2.79 7.08,4.83 7.73,6.33c0.65,1.51 -0.12,5.29 -0.71,9.97a0.76,0.76 0 0 1 -1.17,0.54c-1.42,-0.93 -6.88,-4.16 -7.82,-6.33z" fill="#ec42c9"/>
  <path id="svg_477" d="m79.51,307.26l0.51,9.95a1.36,1.36 0 0 1 -2.14,1.19l-7.05,-4.92a1.36,1.36 0 0 1 -0.58,-1.05l-0.5,-9.94a1.36,1.36 0 0 1 2.13,-1.19l7.05,4.91a1.36,1.36 0 0 1 0.58,1.05z" fill="#ec429f"/>
  <path id="svg_478" d="m101.11,318.14q-0.28,0.07 -0.71,-0.17q-1.73,-0.93 -5.52,-3.37q-2.34,-1.5 -2.26,-4.02q0.16,-4.9 0.44,-8.1a1.1,1.1 0 0 1 1.71,-0.82l6.18,4.17a1.64,1.61 -83.7 0 1 0.63,0.79q0.61,1.65 0.48,3.57q-0.25,3.55 -0.28,7.11q0,0.67 -0.67,0.84z" fill="#ec42c9"/>
  <path id="svg_479" d="m81.97,318.13q-0.46,-4.17 -0.67,-8.55q-0.01,-0.32 0.01,-0.38a0.81,0.81 0 0 1 1.2,-0.4l6.65,4.19a3.46,3.45 6 0 1 1.4,1.73q0.25,0.69 0.39,2.59q0.6,4.15 0.8,8.54q0.02,0.31 -0.01,0.38a0.81,0.81 0 0 1 -1.19,0.4l-6.65,-4.19a3.46,3.45 6 0 1 -1.41,-1.74q-0.25,-0.69 -0.52,-2.57z" fill="#ec429f"/>
  <path id="svg_480" d="m93.68,316.11l7.6,5.29a0.86,0.86 0 0 1 0.36,0.57l2.07,12.1a0.86,0.86 0 0 1 -1.34,0.85l-7.6,-5.29a0.86,0.86 0 0 1 -0.36,-0.57l-2.07,-12.1a0.86,0.86 0 0 1 1.34,-0.85z" fill="#ec429f"/>
  <path id="svg_503" d="m84.65,325.29l7.4,5.16a1,1 0 0 1 0.4,0.58l3.11,12.55a1,1 0 0 1 -1.54,1.06l-8.5,-5.91a1,1 0 0 1 -0.41,-0.65l-2.02,-11.8a1,1 0 0 1 1.56,-0.99z" fill="#e94157"/>
  <path id="svg_506" d="m107.22,353.6l-8.25,-5.75a0.96,0.96 0 0 1 -0.38,-0.51l-3.85,-12.97a0.96,0.96 0 0 1 1.47,-1.06l8.26,5.75a0.96,0.96 0 0 1 0.38,0.51l3.84,12.97a0.96,0.96 0 0 1 -1.47,1.06z" fill="#e94157"/>
  <path id="svg_508" d="m102.9,364.66a0.5,0.5 0 0 1 -0.74,0.58l-8.97,-5.69a1.99,1.95 -87 0 1 -0.75,-0.85q-3.79,-7.84 -5.39,-14.52a0.67,0.67 0 0 1 0.95,-0.76q5.23,2.56 9.79,6.59q0.41,0.37 0.66,1.86q0.22,1.29 0.5,1.96q1.63,3.93 3.95,10.83z" fill="#e94157"/>
  <path id="svg_516" d="m101.37,352.5c3.34,1.62 8.74,4.52 10.23,8.14q4.04,9.8 5.1,12.66q0.25,0.68 0.25,1.15a0.6,0.6 0 0 1 -0.94,0.49l-7.77,-5.42a8.06,7.99 -83.8 0 1 -2.86,-3.58q-1.44,-3.58 -3.29,-7.72q-1.17,-2.64 -1.29,-5.34a0.4,0.4 0 0 1 0.57,-0.38z" fill="#e94157"/>
 </g>
</svg>